<svg width="54" height="54" viewBox="0 0 54 54" fill="none" xmlns="http://www.w3.org/2000/svg">
<path d="M8.95998 31.3604C8.53609 31.3619 8.1205 31.243 7.76148 31.0177C7.40245 30.7923 7.11474 30.4697 6.93177 30.0874C6.7488 29.705 6.67808 29.2786 6.72782 28.8576C6.77756 28.4366 6.94573 28.0384 7.21278 27.7092L29.3888 4.86124C29.5551 4.66923 29.7818 4.53948 30.0316 4.49328C30.2814 4.44709 30.5395 4.48719 30.7635 4.60701C30.9876 4.72683 31.1642 4.91925 31.2644 5.15269C31.3647 5.38612 31.3826 5.6467 31.3152 5.89164L27.0144 19.3764C26.8876 19.7159 26.845 20.081 26.8903 20.4405C26.9356 20.8 27.0674 21.1431 27.2744 21.4404C27.4815 21.7378 27.7576 21.9805 28.079 22.1477C28.4004 22.3149 28.7577 22.4016 29.12 22.4004H44.8C45.2239 22.399 45.6395 22.5179 45.9985 22.7432C46.3575 22.9686 46.6452 23.2912 46.8282 23.6735C47.0112 24.0559 47.0819 24.4823 47.0321 24.9033C46.9824 25.3243 46.8142 25.7225 46.5472 26.0516L24.3712 48.8997C24.2048 49.0917 23.9782 49.2214 23.7283 49.2676C23.4785 49.3138 23.2204 49.2737 22.9964 49.1539C22.7724 49.0341 22.5958 48.8416 22.4956 48.6082C22.3953 48.3748 22.3774 48.1142 22.4448 47.8693L26.7456 34.3845C26.8724 34.045 26.915 33.6799 26.8697 33.3204C26.8244 32.9609 26.6926 32.6178 26.4855 32.3205C26.2785 32.0231 26.0024 31.7804 25.681 31.6132C25.3595 31.446 25.0023 31.3593 24.64 31.3604H8.95998Z" stroke="#3F3F47" stroke-width="4.48" stroke-linecap="round" stroke-linejoin="round"/>
</svg>
